<svg version="1.1" id="ibb_logo" class="logo" xmlns="http://www.w3.org/2000/svg" xmlns:xlink="http://www.w3.org/1999/xlink" x="0px" y="0px" viewBox="0 0 497.48 136.154" enable-background="new 0 0 497.48 136.154" xml:space="preserve">
<g>
<path fill="#00ADCE" d="M0.283,18.451c0-10.029,8.129-18.157,18.157-18.157s18.157,8.128,18.157,18.157
c0,10.028-8.129,18.157-18.157,18.157S0.283,28.479,0.283,18.451L0.283,18.451z"></path>
<path fill="#00ADCE" d="M0.283,68.082c0-10.028,8.129-18.157,18.157-18.157s18.157,8.129,18.157,18.157
c0,10.027-8.129,18.156-18.157,18.156S0.283,78.109,0.283,68.082L0.283,68.082z"></path>
<path fill="#00ADCE" d="M0.283,117.712c0-10.027,8.129-18.156,18.157-18.156s18.157,8.128,18.157,18.156
c0,10.029-8.129,18.158-18.157,18.158S0.283,127.741,0.283,117.712L0.283,117.712z"></path>
<path fill="#BBE5EE" d="M99.545,117.712c0-10.027,8.128-18.156,18.156-18.156s18.157,8.128,18.157,18.156
c0,10.029-8.129,18.158-18.157,18.158S99.545,127.741,99.545,117.712L99.545,117.712z"></path>
<path fill="#5FCDE2" d="M49.914,117.712c0-10.027,8.129-18.156,18.157-18.156s18.157,8.128,18.157,18.156
c0,10.029-8.129,18.158-18.157,18.158S49.914,127.741,49.914,117.712L49.914,117.712z"></path>
<path fill="#BBE5EE" d="M99.545,68.082c0-10.028,8.128-18.157,18.156-18.157s18.157,8.129,18.157,18.157
c0,10.027-8.129,18.156-18.157,18.156S99.545,78.109,99.545,68.082L99.545,68.082z"></path>
<path fill="#5FCDE2" d="M49.914,68.082c0-10.028,8.129-18.157,18.157-18.157s18.157,8.129,18.157,18.157
c0,10.027-8.129,18.156-18.157,18.156S49.914,78.109,49.914,68.082L49.914,68.082z"></path>
<path fill-rule="evenodd" clip-rule="evenodd" d="M178.26,121.687c0-3.363-1.969-6.582-6.195-7.398v-0.096
c3.313-1.154,5.523-4.084,5.523-7.398c0-4.996-3.65-7.877-10.712-7.877c-3.939,0-7.637,0.098-10.182,0.146v32.423
c3.602,0.047,6.867,0.143,8.837,0.143C175.474,131.628,178.26,125.913,178.26,121.687L178.26,121.687z M172.113,107.61
c0,3.268-2.547,5.236-7.398,5.236c-1.104,0-1.92,0-2.784-0.049v-9.605c1.248-0.049,2.642-0.096,4.082-0.096
C170.623,103.097,172.113,104.97,172.113,107.61L172.113,107.61z M172.738,121.782c0,3.264-2.258,5.57-7.013,5.57
c-1.682,0-2.979-0.096-3.795-0.242v-10.326c0.72-0.047,2.401-0.047,2.93-0.047C169.422,116.737,172.738,118.083,172.738,121.782
L172.738,121.782z"></path>
<path fill-rule="evenodd" clip-rule="evenodd" d="M202.265,117.456c0-5.666-2.931-10.326-9.752-10.326
c-6.964,0-10.903,5.381-10.903,12.586c0,8.404,4.083,12.248,11.527,12.248c2.931,0,5.861-0.529,8.262-1.537l-0.479-4.082
c-1.97,0.961-4.516,1.537-6.965,1.537c-4.755,0-7.205-2.498-7.061-8.023h15.227C202.216,118.948,202.265,118.13,202.265,117.456
L202.265,117.456z M197.125,116.257H186.99c0.433-3.219,2.45-5.332,5.332-5.332C195.348,110.925,197.221,112.991,197.125,116.257
L197.125,116.257z"></path>
<path d="M213.641,107.61c-2.931-0.143-6.39,0.049-9.079,0.338v3.17c1.394,0.096,3.025,0.287,4.179,0.479v19.889h5.092v-9.703
c0-7.158,2.354-10.473,7.108-9.607l0.24-5.045c-4.467-0.432-6.868,2.547-7.925,5.764h-0.097
C213.449,111.069,213.641,108.956,213.641,107.61L213.641,107.61z"></path>
<path d="M230.475,96.419c-3.122-0.145-6.628,0.048-9.318,0.337v3.169c1.393,0.097,3.025,0.289,4.179,0.48v31.08h5.14V96.419
L230.475,96.419z"></path>
<path d="M243.714,107.659c-3.122-0.145-6.58,0.049-9.271,0.336v3.166c1.394,0.096,3.026,0.287,4.179,0.479v19.846h5.092V107.659
L243.714,107.659z"></path>
<path d="M256.756,107.61c-2.93-0.143-6.388,0.049-9.078,0.338v3.17c1.393,0.096,3.025,0.287,4.178,0.479v19.889h5.092v-11.529
c0-4.756,2.69-8.551,6.245-8.551c2.787,0,3.602,1.73,3.602,4.709v15.371h5.092v-16.719c0-4.227-1.727-7.637-7.157-7.637
c-3.987,0-6.869,2.115-8.262,5.188l-0.096-0.047C256.612,110.925,256.756,108.86,256.756,107.61L256.756,107.61z"></path>
<polygon points="161.93,85.325 161.93,52.902 156.695,52.902 156.695,85.325 161.93,85.325 "></polygon>
<path d="M175.02,61.452c-2.931-0.144-6.389,0.048-9.079,0.336v3.17c1.394,0.097,3.026,0.289,4.18,0.481v19.886h5.091V73.796
c0-4.755,2.689-8.55,6.244-8.55c2.786,0,3.603,1.729,3.603,4.707v15.371h5.092V68.609c0-4.228-1.729-7.638-7.157-7.638
c-3.986,0-6.868,2.114-8.262,5.188l-0.096-0.048C174.875,64.766,175.02,62.701,175.02,61.452L175.02,61.452z"></path>
<path d="M216.639,61.452h-5.524l-4.562,12.825c-0.528,1.537-1.01,3.219-1.395,4.707h-0.047c-0.432-1.585-0.96-3.266-1.537-4.898
l-4.468-12.634h-5.667l8.935,23.873h5.235L216.639,61.452L216.639,61.452z"></path>
<path fill-rule="evenodd" clip-rule="evenodd" d="M238.659,71.297c0-5.667-2.93-10.326-9.751-10.326
c-6.965,0-10.903,5.38-10.903,12.585c0,8.405,4.082,12.247,11.528,12.247c2.93,0,5.859-0.527,8.261-1.536l-0.479-4.082
c-1.969,0.96-4.516,1.537-6.965,1.537c-4.756,0-7.205-2.498-7.061-8.022h15.226C238.611,72.788,238.659,71.971,238.659,71.297
L238.659,71.297z M233.519,70.097h-10.135c0.432-3.218,2.45-5.331,5.331-5.331C231.743,64.766,233.616,66.832,233.519,70.097
L233.519,70.097z"></path>
<path d="M258.056,78.072c0-7.927-10.566-5.572-10.566-10.184c0-1.825,1.392-2.979,4.226-2.979c1.537,0,3.219,0.241,4.66,0.673
l0.144-4.179c-1.44-0.24-3.074-0.433-4.467-0.433c-6.484,0-9.847,3.267-9.847,7.398c0,8.261,10.471,5.379,10.471,10.181
c0,1.97-1.922,3.172-4.706,3.172c-1.826,0-3.699-0.338-5.188-0.77l-0.145,4.372c1.489,0.287,3.267,0.479,5.044,0.479
C254.07,85.803,258.056,82.539,258.056,78.072L258.056,78.072z"></path>
<path d="M275.617,85.228v-4.227c-0.912,0.239-2.064,0.383-3.123,0.383c-2.402,0-3.121-0.96-3.121-4.514V65.439h6.244v-3.987h-6.293
v-8.982l-5.092,1.393v7.59h-4.562v3.987h4.562v13.016c0,5.332,1.539,7.303,6.629,7.303
C272.447,85.757,274.224,85.517,275.617,85.228L275.617,85.228z"></path>
<path d="M286.882,61.5c-3.121-0.144-6.578,0.049-9.27,0.336V65c1.393,0.096,3.025,0.288,4.178,0.479v19.845h5.092V61.5
L286.882,61.5z"></path>
<path d="M306.023,85.228v-4.227c-0.91,0.239-2.064,0.383-3.119,0.383c-2.402,0-3.123-0.96-3.123-4.514V65.439h6.242v-3.987h-6.289
v-8.982l-5.092,1.393v7.59h-4.564v3.987h4.564v13.016c0,5.332,1.535,7.303,6.627,7.303
C302.855,85.757,304.632,85.517,306.023,85.228L306.023,85.228z"></path>
<path d="M317.292,61.5c-3.123-0.144-6.582,0.049-9.271,0.336V65c1.391,0.096,3.025,0.288,4.178,0.479v19.845h5.094V61.5
L317.292,61.5z"></path>
<path fill-rule="evenodd" clip-rule="evenodd" d="M344.839,72.931c0-8.405-4.518-11.96-10.904-11.96
c-7.254,0-11.912,5.524-11.912,12.729c0,8.406,4.322,12.104,10.951,12.104C340.035,85.803,344.839,80.281,344.839,72.931
L344.839,72.931z M339.556,73.267c0,5.524-2.787,8.117-6.102,8.117c-3.986,0-6.102-2.834-6.102-8.213
c0-5.476,3.027-7.877,6.15-7.877C337.585,65.294,339.556,68.176,339.556,73.267L339.556,73.267z"></path>
<path d="M355.968,61.452c-2.93-0.144-6.387,0.048-9.076,0.336v3.17c1.391,0.097,3.025,0.289,4.178,0.481v19.886h5.092V73.796
c0-4.755,2.689-8.55,6.246-8.55c2.783,0,3.6,1.729,3.6,4.707v15.371h5.094V68.609c0-4.228-1.73-7.638-7.158-7.638
c-3.986,0-6.869,2.114-8.262,5.188l-0.096-0.048C355.826,64.766,355.968,62.701,355.968,61.452L355.968,61.452z"></path>
<path d="M392.162,78.072c0-7.927-10.566-5.572-10.566-10.184c0-1.825,1.393-2.979,4.227-2.979c1.537,0,3.217,0.241,4.658,0.673
l0.143-4.179c-1.441-0.24-3.072-0.433-4.465-0.433c-6.484,0-9.848,3.267-9.848,7.398c0,8.261,10.473,5.379,10.473,10.181
c0,1.97-1.922,3.172-4.709,3.172c-1.824,0-3.699-0.338-5.188-0.77l-0.145,4.372c1.49,0.287,3.268,0.479,5.045,0.479
C388.173,85.803,392.162,82.539,392.162,78.072L392.162,78.072z"></path>
<path fill-rule="evenodd" clip-rule="evenodd" d="M402.757,50.26c-3.123-0.145-6.629,0.048-9.318,0.336v3.17
c1.393,0.096,3.025,0.288,4.178,0.48V84.7c2.643,0.674,5.141,1.008,8.502,1.008c7.973,0,12.682-5.234,12.682-13.495
c0-7.207-3.123-11.241-8.791-11.241c-3.506,0-6.34,1.873-7.59,4.852h-0.047c0.24-1.249,0.385-3.17,0.385-4.564V50.26L402.757,50.26
z M413.421,72.691c0,6.438-2.836,8.936-6.869,8.936c-1.537,0-2.738-0.145-3.795-0.481v-7.396c0-4.035,2.064-8.502,5.906-8.502
C411.882,65.247,413.421,67.888,413.421,72.691L413.421,72.691z"></path>
<path fill-rule="evenodd" clip-rule="evenodd" d="M445.445,84.988v-3.17c-1.391-0.096-3.023-0.288-4.178-0.479V69.042
c0-4.9-2.018-8.07-9.318-8.07c-3.074,0-6.053,0.673-8.406,1.586l0.48,4.371c2.018-1.249,4.9-1.923,7.109-1.923
c3.746,0,4.996,1.537,4.996,4.517v1.536c-8.6,0-14.074,3.171-14.074,8.646c0,3.795,2.594,6.099,6.678,6.099
c3.795,0,6.771-2.112,7.924-4.946l0.049,0.049c-0.191,1.296-0.24,2.881-0.24,4.419C439.25,85.469,442.757,85.276,445.445,84.988
L445.445,84.988z M436.128,74.997c0,3.41-2.355,6.773-5.859,6.773c-2.018,0-3.268-1.152-3.268-2.931
c0-2.064,1.633-4.323,9.127-4.323V74.997L436.128,74.997z"></path>
<path d="M455.478,61.452c-2.93-0.144-6.389,0.048-9.08,0.336v3.17c1.395,0.097,3.027,0.289,4.178,0.481v19.886h5.094V73.796
c0-4.755,2.689-8.55,6.244-8.55c2.787,0,3.602,1.729,3.602,4.707v15.371h5.092V68.609c0-4.228-1.727-7.638-7.156-7.638
c-3.986,0-6.869,2.114-8.262,5.188l-0.096-0.048C455.332,64.766,455.478,62.701,455.478,61.452L455.478,61.452z"></path>
<path d="M497.48,85.325l-9.512-12.969l8.84-10.904h-6.291l-7.734,10.23V50.26c-3.121-0.145-6.629,0.048-9.32,0.336v3.17
c1.395,0.096,3.027,0.288,4.18,0.48v31.078h5.141V73.221l8.164,12.104H497.48L497.48,85.325z"></path>
</g>
</svg>