<svg id="Ebene_1" data-name="Ebene 1" xmlns="http://www.w3.org/2000/svg" width="300mm" height="175mm" viewBox="0 0 850.39 496.06"><defs><style>.cls-1{fill:none;}.cls-2{fill:#e40422;}</style></defs><rect class="cls-1" x="1.42" y="1.42" width="847.56" height="493.23"/><path d="M0,0V496.06H850.39V0ZM572.6,5.67H844.72V277.8H572.6ZM5.67,5.67H566.93V277.8H5.67ZM844.72,490.39H5.67V283.46H844.72Z"/><path class="cls-2" d="M485.55,96v62.44c0,.81-.54,1.08-.95.27L449,95.47a2.38,2.38,0,0,0-2-1.08H431.7A1.56,1.56,0,0,0,430.08,96v91.16a1.56,1.56,0,0,0,1.62,1.62h13.22a1.56,1.56,0,0,0,1.62-1.62v-62.3c0-.81.54-1.08.95-.27l35.63,63.11a2.38,2.38,0,0,0,2,1.08H500.4a1.57,1.57,0,0,0,1.62-1.62V96a1.57,1.57,0,0,0-1.62-1.62H487.17A1.56,1.56,0,0,0,485.55,96m-95.36,92.78h13.36a1.56,1.56,0,0,0,1.62-1.62V96a1.56,1.56,0,0,0-1.62-1.62H390.19A1.57,1.57,0,0,0,388.57,96v91.16a1.57,1.57,0,0,0,1.62,1.62m-53.28-16.45V96a1.57,1.57,0,0,0-1.62-1.62H321.93A1.56,1.56,0,0,0,320.31,96v91.16a1.56,1.56,0,0,0,1.62,1.62h46a1.56,1.56,0,0,0,1.62-1.62V174.76a1.56,1.56,0,0,0-1.62-1.62H337.72a.77.77,0,0,1-.81-.8M249.61,110H261.9c10.93,0,19.7,5.8,19.7,17.8s-8.77,17.8-19.84,17.8H249.61a.78.78,0,0,1-.8-.81v-34a.71.71,0,0,1,.8-.8m31.32,78.75h17c1.35,0,1.76-.95.95-2l-20.25-27.37a.78.78,0,0,1,.27-1.21c12-4.86,20-15.51,20-30.34,0-21-15.93-33.45-36.17-33.45H233.82A1.57,1.57,0,0,0,232.2,96v91.16a1.57,1.57,0,0,0,1.62,1.62h13.37a1.57,1.57,0,0,0,1.62-1.62V162.09a.77.77,0,0,1,.8-.81h10.26a1.66,1.66,0,0,1,1.08.54L279,187.71a2.16,2.16,0,0,0,1.89,1.08m-73.26-80.37V96a1.57,1.57,0,0,0-1.62-1.62H156.92A1.57,1.57,0,0,0,155.3,96v91.16a1.57,1.57,0,0,0,1.62,1.62h49.13a1.57,1.57,0,0,0,1.62-1.62V174.76a1.57,1.57,0,0,0-1.62-1.62H172.58a.77.77,0,0,1-.81-.8V149.68a.78.78,0,0,1,.81-.81h33.47a1.56,1.56,0,0,0,1.62-1.62V135a1.57,1.57,0,0,0-1.62-1.62H172.58a.71.71,0,0,1-.81-.8V110.84a.77.77,0,0,1,.81-.8h33.47a1.57,1.57,0,0,0,1.62-1.62M102.45,173.14H88.14a.77.77,0,0,1-.81-.8V149.68a.72.72,0,0,1,.81-.81h14.31c8.77,0,13.63,5,13.63,12.14s-4.86,12.13-13.63,12.13M101.1,110c8.5,0,13.22,4.58,13.22,11.59s-4.72,11.73-13.22,11.73h-13a.71.71,0,0,1-.81-.8V110.84a.71.71,0,0,1,.81-.8Zm19.7,29.66a22.57,22.57,0,0,0,10.8-19.82c0-14.43-10-25.49-28.34-25.49H72.48A1.56,1.56,0,0,0,70.87,96v91.16a1.56,1.56,0,0,0,1.61,1.62h32c18.9,0,28.88-11.47,28.88-26.57,0-9.84-4.72-17.26-12.55-21.44-.54-.4-.54-.81,0-1.08"/><path d="M750.31,222.16s-4.95-32.87-7.3-46.73l1-.21a3.05,3.05,0,0,0,2-4.53C740.45,161,738.44,149,738.44,137A64.34,64.34,0,0,1,742,116c.13-.38.27-.75.4-1.13l.28-.81a62,62,0,0,0,5-18.43,52.39,52.39,0,0,0-4.1-25.28l-.45-.8a6.59,6.59,0,0,0,.86-8c-1.84-3.16-5.6-4.42-8.41-2.8-.29.17-1,.66-1.3.89-.51-.38-.81-.57-.81-.57s-.79-.52-1.47-.87c0,0-.26-.13-.26-.14a22.85,22.85,0,0,0-9.37-1.95,23.68,23.68,0,0,0-4.8.49,23.27,23.27,0,0,0-9.1,4.08,13.57,13.57,0,0,1-2.88.55l-3.8.18c-1.79.07-3.83,0-3.83,0A1.62,1.62,0,0,0,696.33,63c0,.08.59,5.3.59,5.32a4.27,4.27,0,0,0,1.79,3.25l.13.09a1.42,1.42,0,0,1,.6.62,5.87,5.87,0,0,0,1.84,2.62c.26.16.67.08.74-.21.73-2.85,2.43.22,5.66-1.53.83-.45,1.27,1.57.92,2.45l-.3.76a5.1,5.1,0,0,1-4,3.18c-1.43.21-2.25.35-2.23.55.17,1.61,0,3,1.62,4a3.79,3.79,0,0,0,.72.31c2.5.66,9.83,3.47.52,14.46a23.43,23.43,0,0,0-1.57,2,6,6,0,0,0-.51.89l-.2.39-28-10.47a6.41,6.41,0,0,1-2.45-2l-2.76-4.74a7.26,7.26,0,0,0-6.18-3.51,24.92,24.92,0,0,0-3.9,0c-.83,0-1.31.24-1.49.73a5.07,5.07,0,0,0,.61,3.51l2.4,4.41c.21.31,3.24,7.09,3.24,7.09a5.14,5.14,0,0,0,1.51,2.14L694.36,121l-30.29,15.11a3.72,3.72,0,0,1-2.85.29l-2.71-.82c-5-2.21-8.69-.67-10.88,1.16,0,0-.85.81-.85.81a1.43,1.43,0,0,0,.42,2.4s4.78,2.81,5.83,3.53l7.44,4.41a5.45,5.45,0,0,0,3.83.62l29.41-5.93a101.36,101.36,0,0,0,3.55,20.62,52.9,52.9,0,0,0-15,28.19c-1.43,7.94-1,15.13,1.2,23.59-4.11.23-8.07.83-11.36,3.12s-3.78,6.06-3.8,8l23,.05h1.94a3.29,3.29,0,0,0,3-2.44,15.48,15.48,0,0,0,.43-2.38,51.59,51.59,0,0,1,5.39-17.6,58.19,58.19,0,0,1,9.15-12.65,91.22,91.22,0,0,0,26,24.1,25.58,25.58,0,0,0-9.56,2.57,9.83,9.83,0,0,0-4.76,8.46h23.79a3.68,3.68,0,0,0,3.49-2.49,3.9,3.9,0,0,0,.12-.46,2,2,0,0,0,0-.34A3.14,3.14,0,0,0,750.31,222.16Z"/><path d="M74.07,368a11.15,11.15,0,0,1-4.27-5.8l0-.2a.48.48,0,0,1,.35-.45l2.55-1.05a.58.58,0,0,1,.25,0,.37.37,0,0,1,.25.1.87.87,0,0,1,.15.25,7.69,7.69,0,0,0,2.87,4.2,8.19,8.19,0,0,0,4.93,1.5,7.71,7.71,0,0,0,5.47-1.8,6.7,6.7,0,0,0,.2-9.2,9.09,9.09,0,0,0-4.72-2.3l-2.55-.5a11.18,11.18,0,0,1-6.33-3.23,8.9,8.9,0,0,1-2.32-6.37,9.19,9.19,0,0,1,1.35-4.87,9.72,9.72,0,0,1,3.72-3.53,11.95,11.95,0,0,1,11.93.63,11,11,0,0,1,4,5.27.3.3,0,0,1,.05.2.49.49,0,0,1-.35.45l-2.6,1.1a.49.49,0,0,1-.25.05.32.32,0,0,1-.25-.1.53.53,0,0,1-.15-.25,7.91,7.91,0,0,0-2.78-3.7A7,7,0,0,0,81.35,337a6.71,6.71,0,0,0-4.83,1.7,5.77,5.77,0,0,0-1.77,4.35,5.56,5.56,0,0,0,1.4,3.9,7,7,0,0,0,4.15,2l2.55.5a13.8,13.8,0,0,1,6.85,3.4,9,9,0,0,1,2.7,6.9A10.17,10.17,0,0,1,91,365.07a9.56,9.56,0,0,1-4,3.7,12.76,12.76,0,0,1-6,1.35A11.94,11.94,0,0,1,74.07,368Z"/><path d="M102.77,368.32a10.59,10.59,0,0,1-4.17-4.27,14.38,14.38,0,0,1,0-12.73,10.71,10.71,0,0,1,4.05-4.25,11.3,11.3,0,0,1,5.78-1.5,11.13,11.13,0,0,1,5.72,1.5,10.71,10.71,0,0,1,4,4.12,12.06,12.06,0,0,1,1.45,5.93,10.81,10.81,0,0,1,0,1.15.48.48,0,0,1-.5.4H101.4c-.4,0-.55.22-.45.65a8.23,8.23,0,0,0,2.52,5.25,7.73,7.73,0,0,0,5.43,1.95,8.81,8.81,0,0,0,6.55-2.9c.37-.37.65-.43.85-.2l1.65,1.8a.39.39,0,0,1,0,.65,12.78,12.78,0,0,1-4.13,2.93,12.11,12.11,0,0,1-4.92,1A12.34,12.34,0,0,1,102.77,368.32Zm12.93-13.15a7.62,7.62,0,0,0-2.48-4.57,7.06,7.06,0,0,0-4.82-1.73,7.18,7.18,0,0,0-4.88,1.78,7.42,7.42,0,0,0-2.47,4.57l0,.25c0,.2.16.3.5.3h13.75Q115.85,355.77,115.7,355.17Z"/><path d="M128.5,369.27h-2.65a.44.44,0,0,1-.5-.5v-22.2a.44.44,0,0,1,.5-.5h2.4a.44.44,0,0,1,.5.5v1.65c0,.14,0,.22.12.25s.18,0,.28-.15a8.5,8.5,0,0,1,2.65-2.05,7.81,7.81,0,0,1,3.4-.7,7.59,7.59,0,0,1,5.75,2.15,7.69,7.69,0,0,1,2.05,5.5v15.55a.44.44,0,0,1-.5.5h-2.65a.44.44,0,0,1-.5-.5V353.82a5.12,5.12,0,0,0-1.25-3.72,4.82,4.82,0,0,0-3.6-1.28,5.49,5.49,0,0,0-3,.85,6.77,6.77,0,0,0-2.25,2.45,2.26,2.26,0,0,0-.25,1.05v15.6A.44.44,0,0,1,128.5,369.27Z"/><path d="M154.3,368.24a10.88,10.88,0,0,1-4.1-4.27,14,14,0,0,1,0-12.6,10.94,10.94,0,0,1,4.1-4.27,11.22,11.22,0,0,1,5.8-1.53,9.38,9.38,0,0,1,7.55,3.1.16.16,0,0,0,.2.05c.07,0,.1-.1.1-.2v-1.95a.44.44,0,0,1,.5-.5h2.45a.44.44,0,0,1,.5.5v22.2a.44.44,0,0,1-.5.5h-2.45a.44.44,0,0,1-.5-.5v-1.95c0-.1,0-.17-.1-.2a.17.17,0,0,0-.2.05,10.28,10.28,0,0,1-7.55,3.1A11.22,11.22,0,0,1,154.3,368.24Zm10.55-2.77a6.23,6.23,0,0,0,2.7-2.7,2,2,0,0,0,.2-.9v-8.4a2,2,0,0,0-.2-.9,6.89,6.89,0,0,0-2.78-2.7,8.51,8.51,0,0,0-4.12-1,7.81,7.81,0,0,0-6,2.43,10.09,10.09,0,0,0,0,12.75,7.81,7.81,0,0,0,6,2.42A8.66,8.66,0,0,0,164.85,365.47Z"/><path d="M180.55,337l2.7-1.45a.58.58,0,0,1,.25-.05c.23,0,.35.14.35.4v9.9a.22.22,0,0,0,.25.25h2.75a.44.44,0,0,1,.5.5v2.15a.44.44,0,0,1-.5.5H184.1a.22.22,0,0,0-.25.25v19.3a.44.44,0,0,1-.5.5H180.7a.44.44,0,0,1-.5-.5v-19.3a.22.22,0,0,0-.25-.25H177.2a.44.44,0,0,1-.5-.5v-2.15a.44.44,0,0,1,.5-.5H180a.22.22,0,0,0,.25-.25v-8.2A.58.58,0,0,1,180.55,337Z"/><path d="M193.62,368.32a7.76,7.76,0,0,1-2.82-4l-.05-.2c0-.2.12-.33.35-.4l2.4-.85.2-.05c.2,0,.35.13.45.4a4.41,4.41,0,0,0,1.73,2.5,4.62,4.62,0,0,0,2.72.9,4.55,4.55,0,0,0,3.2-1,3.46,3.46,0,0,0,1.1-2.63,3.07,3.07,0,0,0-1.08-2.5,6.36,6.36,0,0,0-3-1.25l-2-.4a6.83,6.83,0,0,1-4-2.27,6.4,6.4,0,0,1-1.5-4.28,6.32,6.32,0,0,1,.95-3.4,6.56,6.56,0,0,1,2.67-2.43,8.48,8.48,0,0,1,3.88-.87,7.68,7.68,0,0,1,4.68,1.43,7.33,7.33,0,0,1,2.67,4.07l0,.2c0,.2-.13.35-.4.45l-2.35.6-.2.05c-.2,0-.34-.13-.4-.4a4.48,4.48,0,0,0-1.42-2.35,4,4,0,0,0-2.63-.85,4.14,4.14,0,0,0-2.83,1,3.09,3.09,0,0,0-1.07,2.4,3,3,0,0,0,.85,2.3,5.09,5.09,0,0,0,2.55,1.15l1.95.4a8.38,8.38,0,0,1,4.52,2.32A6.45,6.45,0,0,1,206.5,363a6.33,6.33,0,0,1-2.13,4.92,8.23,8.23,0,0,1-5.77,1.93A8.13,8.13,0,0,1,193.62,368.32Z"/><path d="M226.35,346.07h2.8c.37,0,.5.18.39.55l-7.34,22.25a.62.62,0,0,1-.65.4H217.7a.64.64,0,0,1-.66-.4l-7.34-22.25,0-.2c0-.23.15-.35.45-.35h2.8a.56.56,0,0,1,.59.4l6,18.45a.18.18,0,0,0,.17.15q.12,0,.18-.15l5.95-18.45A.58.58,0,0,1,226.35,346.07Z"/><path d="M238.42,368.32a10.59,10.59,0,0,1-4.17-4.27,14.38,14.38,0,0,1,0-12.73,10.57,10.57,0,0,1,4.05-4.25,11.27,11.27,0,0,1,5.78-1.5,11.16,11.16,0,0,1,5.72,1.5,10.71,10.71,0,0,1,4,4.12,12.17,12.17,0,0,1,1.45,5.93,10.81,10.81,0,0,1-.05,1.15.48.48,0,0,1-.5.4H237.05c-.41,0-.55.22-.45.65a8.18,8.18,0,0,0,2.52,5.25,7.73,7.73,0,0,0,5.43,1.95,8.81,8.81,0,0,0,6.55-2.9c.37-.37.65-.43.85-.2l1.65,1.8a.39.39,0,0,1,0,.65,12.78,12.78,0,0,1-4.13,2.93,12.11,12.11,0,0,1-4.92,1A12.34,12.34,0,0,1,238.42,368.32Zm12.93-13.15a7.62,7.62,0,0,0-2.48-4.57,7.07,7.07,0,0,0-4.82-1.73,7.18,7.18,0,0,0-4.88,1.78,7.42,7.42,0,0,0-2.47,4.57l-.06.25c0,.2.17.3.5.3H250.9Q251.5,355.77,251.35,355.17Z"/><path d="M271.8,345.62c.3,0,.45.17.45.5v2.65c0,.3-.12.45-.35.45a2.94,2.94,0,0,1-.72-.08,4.61,4.61,0,0,0-.68-.07A6.3,6.3,0,0,0,265,352a2.09,2.09,0,0,0-.35,1.25v15.5a.44.44,0,0,1-.5.5H261.5a.44.44,0,0,1-.5-.5v-22.2a.44.44,0,0,1,.5-.5h2.4a.44.44,0,0,1,.5.5v1.8c0,.14,0,.22.1.25s.15,0,.25-.1a7.8,7.8,0,0,1,6.3-2.95A4.53,4.53,0,0,1,271.8,345.62Z"/><path d="M300.65,346.07h2.7a.44.44,0,0,1,.37.15.48.48,0,0,1,.08.4l-5.6,22.2a.48.48,0,0,1-.55.45h-3.5a.63.63,0,0,1-.65-.55l-4.1-16q-.06-.15-.18-.15a.18.18,0,0,0-.17.15l-4.1,16a.64.64,0,0,1-.65.55h-3.5a.51.51,0,0,1-.55-.45l-5.6-22.2,0-.15c0-.27.17-.4.5-.4h2.7q.56,0,.6.45l4.15,17.55c0,.14.08.2.15.2s.11-.06.15-.2l4.5-17.55a.56.56,0,0,1,.55-.45h2.65a.56.56,0,0,1,.55.45l4.5,17.55c0,.14.08.2.15.2s.11-.06.15-.2l4.15-17.55A.55.55,0,0,1,300.65,346.07Z"/><path d="M313.15,368.24a10.88,10.88,0,0,1-4.1-4.27,14,14,0,0,1,0-12.6,10.94,10.94,0,0,1,4.1-4.27,11.2,11.2,0,0,1,5.8-1.53,9.39,9.39,0,0,1,7.55,3.1.16.16,0,0,0,.2.05.21.21,0,0,0,.1-.2v-1.95a.44.44,0,0,1,.5-.5h2.45a.44.44,0,0,1,.5.5v22.2a.44.44,0,0,1-.5.5H327.3a.44.44,0,0,1-.5-.5v-1.95a.21.21,0,0,0-.1-.2.17.17,0,0,0-.2.05,10.26,10.26,0,0,1-7.55,3.1A11.2,11.2,0,0,1,313.15,368.24Zm10.55-2.77a6.23,6.23,0,0,0,2.7-2.7,2,2,0,0,0,.2-.9v-8.4a2,2,0,0,0-.2-.9,7,7,0,0,0-2.78-2.7,8.51,8.51,0,0,0-4.12-1,7.81,7.81,0,0,0-6,2.43,10.09,10.09,0,0,0,0,12.75,7.81,7.81,0,0,0,6,2.42A8.63,8.63,0,0,0,323.7,365.47Z"/><path d="M344.1,366.72V369a.44.44,0,0,1-.5.5h-.9a5.44,5.44,0,0,1-3.65-1.12,4.35,4.35,0,0,1-1.3-3.48v-31.3a.44.44,0,0,1,.5-.5h2.65a.44.44,0,0,1,.5.5v30.85q0,1.8,1.5,1.8h.7A.44.44,0,0,1,344.1,366.72Z"/><path d="M351.2,337l2.7-1.45a.58.58,0,0,1,.25-.05c.23,0,.35.14.35.4v9.9a.22.22,0,0,0,.25.25h2.75a.44.44,0,0,1,.5.5v2.15a.44.44,0,0,1-.5.5h-2.75a.22.22,0,0,0-.25.25v19.3a.44.44,0,0,1-.5.5h-2.65a.44.44,0,0,1-.5-.5v-19.3a.22.22,0,0,0-.25-.25h-2.75a.44.44,0,0,1-.5-.5v-2.15a.44.44,0,0,1,.5-.5h2.75a.22.22,0,0,0,.25-.25v-8.2A.59.59,0,0,1,351.2,337Z"/><path d="M377.5,346.07h2.65a.44.44,0,0,1,.5.5v22.2a.44.44,0,0,1-.5.5h-2.4a.44.44,0,0,1-.5-.5v-1.65a.24.24,0,0,0-.13-.25c-.08,0-.19,0-.32.15a7.62,7.62,0,0,1-6.05,2.75,7.5,7.5,0,0,1-5.73-2.15,7.68,7.68,0,0,1-2-5.5V346.57a.44.44,0,0,1,.5-.5h2.65a.44.44,0,0,1,.5.5v14.95a5.1,5.1,0,0,0,1.25,3.73,4.8,4.8,0,0,0,3.6,1.27,5.49,5.49,0,0,0,3-.85,6.69,6.69,0,0,0,2.25-2.45,2.39,2.39,0,0,0,.25-1.05v-15.6A.44.44,0,0,1,377.5,346.07Z"/><path d="M391.4,369.27h-2.65a.44.44,0,0,1-.5-.5v-22.2a.44.44,0,0,1,.5-.5h2.4a.44.44,0,0,1,.5.5v1.65c0,.14,0,.22.12.25s.18,0,.27-.15a8.65,8.65,0,0,1,2.66-2.05,7.8,7.8,0,0,1,3.39-.7,7.56,7.56,0,0,1,5.75,2.15,7.65,7.65,0,0,1,2.05,5.5v15.55a.44.44,0,0,1-.5.5h-2.64a.44.44,0,0,1-.5-.5V353.82A5.08,5.08,0,0,0,401,350.1a4.8,4.8,0,0,0-3.59-1.28,5.55,5.55,0,0,0-3,.85,6.84,6.84,0,0,0-2.24,2.45,2.26,2.26,0,0,0-.25,1.05v15.6A.44.44,0,0,1,391.4,369.27Z"/><path d="M417.75,378.54a11.38,11.38,0,0,1-3.9-2.77.47.47,0,0,1,0-.7l1.7-1.85a.56.56,0,0,1,.35-.2.61.61,0,0,1,.35.2,9.5,9.5,0,0,0,12.24,1.38,6,6,0,0,0,2-4.93v-3.45a.24.24,0,0,0-.15-.25c-.11,0-.22,0-.35.15a10,10,0,0,1-7.2,2.65,11.19,11.19,0,0,1-5.65-1.45,10.25,10.25,0,0,1-4-4.1,12.48,12.48,0,0,1-1.46-6.1,11.87,11.87,0,0,1,1.5-6,10.66,10.66,0,0,1,4.08-4.08,11.45,11.45,0,0,1,5.72-1.45,9.51,9.51,0,0,1,7.25,2.8c.14.14.25.18.33.15s.13-.13.13-.3v-1.65a.45.45,0,0,1,.15-.35.47.47,0,0,1,.35-.15h2.44a.44.44,0,0,1,.5.5V370A8.62,8.62,0,0,1,431,377a12.21,12.21,0,0,1-8,2.53A12.65,12.65,0,0,1,417.75,378.54Zm9.74-14.07a7.23,7.23,0,0,0,2.76-2.55,1.69,1.69,0,0,0,.25-.9v-7.75a1.57,1.57,0,0,0-.25-.9,7.23,7.23,0,0,0-2.76-2.55,8.36,8.36,0,0,0-4.05-.95,7.75,7.75,0,0,0-5.82,2.3,9.15,9.15,0,0,0,0,11.95,7.75,7.75,0,0,0,5.82,2.3A8.36,8.36,0,0,0,427.49,364.47Z"/><path d="M72.2,433.48v-19.3a.23.23,0,0,0-.25-.26H70a.53.53,0,0,1-.35-.12.39.39,0,0,1-.15-.32v-2.2a.44.44,0,0,1,.5-.5h2a.22.22,0,0,0,.25-.25v-7.41a6.24,6.24,0,0,1,1.4-4.32,5.05,5.05,0,0,1,4-1.57,7,7,0,0,1,2.75.64c.3.18.41.37.35.61l-.7,2.35c-.1.3-.32.36-.65.2a3.25,3.25,0,0,0-1.45-.4,1.78,1.78,0,0,0-1.5.7,3.13,3.13,0,0,0-.55,2v7.2a.22.22,0,0,0,.25.25h3.1a.44.44,0,0,1,.5.5v2.2a.39.39,0,0,1-.15.32.55.55,0,0,1-.35.12H76.1c-.17,0-.25.09-.25.26v19.3a.51.51,0,0,1-.13.35.39.39,0,0,1-.32.15H72.7A.44.44,0,0,1,72.2,433.48Z"/><path d="M99,410.78h2.65a.44.44,0,0,1,.5.5v22.2a.44.44,0,0,1-.5.5H99.2a.44.44,0,0,1-.5-.5v-1.66a.23.23,0,0,0-.13-.24c-.08,0-.19,0-.32.15a7.62,7.62,0,0,1-6,2.75,7.5,7.5,0,0,1-5.73-2.15,7.71,7.71,0,0,1-2-5.5V411.28a.44.44,0,0,1,.5-.5H87.6a.44.44,0,0,1,.5.5v15A5.07,5.07,0,0,0,89.35,430a4.81,4.81,0,0,0,3.6,1.28,5.49,5.49,0,0,0,3-.85,6.77,6.77,0,0,0,2.25-2.45,2.39,2.39,0,0,0,.25-1.05v-15.6A.44.44,0,0,1,99,410.78ZM86.5,404.55a2.65,2.65,0,0,1-.8-1.92,2.73,2.73,0,0,1,2.7-2.7,2.73,2.73,0,0,1,2.7,2.7,2.69,2.69,0,0,1-.8,1.92,2.58,2.58,0,0,1-1.9.83A2.55,2.55,0,0,1,86.5,404.55Zm9.85,0a2.65,2.65,0,0,1-.8-1.92,2.73,2.73,0,0,1,2.7-2.7,2.73,2.73,0,0,1,2.7,2.7,2.69,2.69,0,0,1-.8,1.92,2.58,2.58,0,0,1-1.9.83A2.55,2.55,0,0,1,96.35,404.55Z"/><path d="M120.49,410.33c.31,0,.46.17.46.5v2.65c0,.3-.12.44-.36.44a3.65,3.65,0,0,1-.72-.07,3.47,3.47,0,0,0-.67-.07,6.28,6.28,0,0,0-5.5,3,2,2,0,0,0-.35,1.24v15.51a.44.44,0,0,1-.5.5h-2.66a.44.44,0,0,1-.5-.5v-22.2a.44.44,0,0,1,.5-.5h2.41a.44.44,0,0,1,.5.5v1.79c0,.14,0,.22.1.26s.15,0,.25-.1a7.79,7.79,0,0,1,6.29-3A3.53,3.53,0,0,1,120.49,410.33Z"/><path d="M155.75,399.48V402a.44.44,0,0,1-.5.5H142.19a.22.22,0,0,0-.25.24v12.06a.23.23,0,0,0,.25.25h13.06a.44.44,0,0,1,.5.5v2.55a.44.44,0,0,1-.5.5H142.19a.22.22,0,0,0-.25.25v14.6a.44.44,0,0,1-.5.5h-2.7a.44.44,0,0,1-.5-.5v-34a.44.44,0,0,1,.5-.5h16.51A.44.44,0,0,1,155.75,399.48Z"/><path d="M161.82,404.55a2.63,2.63,0,0,1-.82-1.92,2.55,2.55,0,0,1,.82-1.9,2.69,2.69,0,0,1,1.93-.8,2.56,2.56,0,0,1,1.85.8,2.61,2.61,0,0,1,.8,1.9,2.69,2.69,0,0,1-.8,1.92,2.52,2.52,0,0,1-1.85.83A2.64,2.64,0,0,1,161.82,404.55Zm0,28.93v-22.2a.44.44,0,0,1,.5-.5H165a.44.44,0,0,1,.5.5v22.2a.44.44,0,0,1-.5.5h-2.65A.44.44,0,0,1,161.85,433.48Z"/><path d="M176.25,434H173.6a.44.44,0,0,1-.5-.5v-22.2a.44.44,0,0,1,.5-.5H176a.44.44,0,0,1,.5.5v1.64c0,.14,0,.22.12.26s.18,0,.28-.15a8.35,8.35,0,0,1,2.65-2,7.7,7.7,0,0,1,3.4-.7,7.54,7.54,0,0,1,5.75,2.15,7.66,7.66,0,0,1,2.05,5.5v15.55a.44.44,0,0,1-.5.5H187.6a.44.44,0,0,1-.5-.5v-15a5.12,5.12,0,0,0-1.25-3.73,4.84,4.84,0,0,0-3.6-1.27,5.49,5.49,0,0,0-3,.85,6.69,6.69,0,0,0-2.25,2.45,2.26,2.26,0,0,0-.25,1.05v15.6A.44.44,0,0,1,176.25,434Z"/><path d="M202.05,433a10.94,10.94,0,0,1-4.1-4.27,14,14,0,0,1,0-12.6,11,11,0,0,1,4.1-4.28,11.31,11.31,0,0,1,5.8-1.52,9.38,9.38,0,0,1,7.55,3.1c.07.06.13.08.2,0s.1-.09.1-.19v-2a.44.44,0,0,1,.5-.5h2.45a.44.44,0,0,1,.5.5v22.2a.44.44,0,0,1-.5.5H216.2a.44.44,0,0,1-.5-.5v-2a.22.22,0,0,0-.1-.21.18.18,0,0,0-.2.06,10.32,10.32,0,0,1-7.55,3.1A11.22,11.22,0,0,1,202.05,433Zm10.55-2.77a6.28,6.28,0,0,0,2.7-2.7,2,2,0,0,0,.2-.9v-8.4a2,2,0,0,0-.2-.9,6.83,6.83,0,0,0-2.78-2.7,8.38,8.38,0,0,0-4.12-1,7.77,7.77,0,0,0-6,2.42,10.05,10.05,0,0,0,0,12.75,7.78,7.78,0,0,0,6,2.43A8.8,8.8,0,0,0,212.6,430.18Z"/><path d="M230,434H227.3a.44.44,0,0,1-.5-.5v-22.2a.44.44,0,0,1,.5-.5h2.4a.44.44,0,0,1,.5.5v1.64c0,.14,0,.22.12.26s.18,0,.28-.15a8.35,8.35,0,0,1,2.65-2,7.69,7.69,0,0,1,3.39-.7,7.55,7.55,0,0,1,5.76,2.15,7.66,7.66,0,0,1,2,5.5v15.55a.44.44,0,0,1-.5.5H241.3a.44.44,0,0,1-.5-.5v-15a5.12,5.12,0,0,0-1.25-3.73,4.84,4.84,0,0,0-3.6-1.27,5.49,5.49,0,0,0-3,.85,6.69,6.69,0,0,0-2.25,2.45,2.26,2.26,0,0,0-.25,1.05v15.6A.44.44,0,0,1,230,434Z"/><path d="M255.55,430.82H267.6c.33,0,.5.19.5.56v2.1a.44.44,0,0,1-.5.5H250.35c-.4,0-.6-.17-.6-.5a.8.8,0,0,1,.15-.5l11.9-18.75c.1-.2.05-.31-.16-.31H250.3a.44.44,0,0,1-.5-.5v-2.14a.44.44,0,0,1,.5-.5h16.6c.36,0,.55.16.55.5a1,1,0,0,1-.15.5l-12,18.75C255.25,430.73,255.31,430.82,255.55,430.82Z"/><path d="M276.92,433a10.46,10.46,0,0,1-4.17-4.27,14.36,14.36,0,0,1,0-12.72,10.51,10.51,0,0,1,4-4.25,11.27,11.27,0,0,1,5.78-1.5,11.16,11.16,0,0,1,5.72,1.5,10.64,10.64,0,0,1,4,4.12,12.14,12.14,0,0,1,1.45,5.93,10.81,10.81,0,0,1-.05,1.15.49.49,0,0,1-.5.4H275.55c-.41,0-.55.21-.45.65a8.18,8.18,0,0,0,2.52,5.25,7.73,7.73,0,0,0,5.43,2,8.84,8.84,0,0,0,6.55-2.9c.37-.37.65-.43.85-.21l1.65,1.81c.23.2.23.41,0,.65A12.75,12.75,0,0,1,288,433.5a12,12,0,0,1-4.92,1A12.34,12.34,0,0,1,276.92,433Zm12.92-13.14a7.55,7.55,0,0,0-2.47-4.58,7.08,7.08,0,0,0-4.82-1.72,7.17,7.17,0,0,0-4.88,1.77,7.42,7.42,0,0,0-2.47,4.58l-.06.24c0,.21.17.31.5.31H289.4C289.8,420.48,290,420.28,289.84,419.88Z"/><path d="M302.65,434H300a.44.44,0,0,1-.5-.5v-22.2a.44.44,0,0,1,.5-.5h2.4a.44.44,0,0,1,.5.5v1.64c0,.14,0,.22.12.26s.17,0,.28-.15a8.35,8.35,0,0,1,2.65-2,7.67,7.67,0,0,1,3.4-.7,7.56,7.56,0,0,1,5.75,2.15,7.66,7.66,0,0,1,2,5.5v15.55a.44.44,0,0,1-.5.5H314a.44.44,0,0,1-.5-.5v-15a5.12,5.12,0,0,0-1.24-3.73,4.82,4.82,0,0,0-3.6-1.27,5.49,5.49,0,0,0-3,.85,6.69,6.69,0,0,0-2.25,2.45,2.26,2.26,0,0,0-.25,1.05v15.6A.44.44,0,0,1,302.65,434Z"/></svg>